<svg xmlns="http://www.w3.org/2000/svg" width="101.209" height="43.732" viewBox="0 0 101.209 43.732">
  <g id="Group_42" data-name="Group 42" transform="translate(-946.062 -537.464)">
    <rect id="Rectangle_27" data-name="Rectangle 27" width="14.869" height="14.869" rx="1.562" transform="translate(1018.173 552.063)" fill="#fff"/>
    <rect id="Rectangle_28" data-name="Rectangle 28" width="11.579" height="11.798" rx="2.1" transform="translate(1003.76 553.617)" fill="#fff"/>
    <rect id="Rectangle_29" data-name="Rectangle 29" width="11.579" height="11.798" rx="2.1" transform="translate(1035.691 553.669)" fill="#fff"/>
    <rect id="Rectangle_30" data-name="Rectangle 30" width="11.589" height="11.808" rx="2.102" transform="translate(1019.956 537.464)" fill="#fff"/>
    <rect id="Rectangle_31" data-name="Rectangle 31" width="11.579" height="11.798" rx="2.1" transform="translate(1019.961 569.399)" fill="#fff"/>
    <rect id="Rectangle_32" data-name="Rectangle 32" width="9.117" height="9.289" rx="1.653" transform="translate(1034.093 542.143)" fill="#fff"/>
    <rect id="Rectangle_33" data-name="Rectangle 33" width="9.124" height="9.297" rx="1.655" transform="translate(1008.218 541.617)" fill="#fff"/>
    <rect id="Rectangle_34" data-name="Rectangle 34" width="9.117" height="9.289" rx="1.653" transform="translate(1008.233 567.867)" fill="#fff"/>
    <rect id="Rectangle_35" data-name="Rectangle 35" width="9.117" height="9.289" rx="1.653" transform="translate(1034.013 567.867)" fill="#fff"/>
    <path id="Path_33" data-name="Path 33" d="M1067.663-422.55a.9.9,0,0,1-.283.974q-1.923,1.9-3.832,3.812c-.249.248-.5.5-.736.754a.859.859,0,0,1-.977.259,1.653,1.653,0,0,1-.4-.328l-2.531-2.551a.8.8,0,0,1-.167-1.01,1.011,1.011,0,0,1,.155-.2q.27-.277.547-.549a.809.809,0,0,1,1.209.007c.463.464.926.927,1.382,1.4.092.1.141.108.244.005q1.7-1.7,3.406-3.4a.815.815,0,0,1,1.008-.185.625.625,0,0,1,.12.083c.249.228.49.467.717.717A1.515,1.515,0,0,1,1067.663-422.55Z" transform="translate(-37.511 979.77)"/>
    <rect id="Rectangle_36" data-name="Rectangle 36" width="32.128" height="32.128" rx="3.541" transform="translate(946.062 542.576)" fill="#fff"/>
    <path id="Path_36" data-name="Path 36" d="M986.785-411.435a11.376,11.376,0,0,1-7.49-2.933,2.847,2.847,0,0,1-.355-3.732,5.407,5.407,0,0,1,4.453-2.4c2.31.039,4.621.029,6.93.008a5.318,5.318,0,0,1,4.454,2.563,2.822,2.822,0,0,1-.461,3.56A11.36,11.36,0,0,1,986.785-411.435Z" transform="translate(-24.684 979.265)"/>
    <path id="Path_37" data-name="Path 37" d="M987.557-425.053a4.359,4.359,0,0,1-4.406-4.374,4.493,4.493,0,0,1,4.418-4.333,4.545,4.545,0,0,1,4.417,4.442A4.405,4.405,0,0,1,987.557-425.053Z" transform="translate(-25.444 981.384)"/>
    <line id="Line_2" data-name="Line 2" x1="14.026" transform="translate(983.645 559.331)" fill="none" stroke="#fff" stroke-linecap="round" stroke-linejoin="round" stroke-width="3"/>
  </g>
</svg>
