<svg xmlns="http://www.w3.org/2000/svg" width="69.251" height="69.604" viewBox="0 0 69.251 69.604">
  <g id="Group_50" data-name="Group 50" transform="translate(-410.977 -325.428)">
    <rect id="Rectangle_13" data-name="Rectangle 13" width="23.665" height="23.665" rx="2.485" transform="translate(433.916 348.662)" fill="#fff"/>
    <rect id="Rectangle_14" data-name="Rectangle 14" width="18.429" height="18.777" rx="3.342" transform="translate(410.977 351.136)" fill="#fff"/>
    <rect id="Rectangle_15" data-name="Rectangle 15" width="18.429" height="18.777" rx="3.342" transform="translate(461.798 351.218)" fill="#fff"/>
    <rect id="Rectangle_16" data-name="Rectangle 16" width="18.445" height="18.793" rx="3.345" transform="translate(436.754 325.428)" fill="#fff"/>
    <rect id="Rectangle_17" data-name="Rectangle 17" width="18.429" height="18.777" rx="3.342" transform="translate(436.762 376.254)" fill="#fff"/>
    <rect id="Rectangle_18" data-name="Rectangle 18" width="14.51" height="14.784" rx="2.631" transform="translate(459.253 332.875)" fill="#fff"/>
    <rect id="Rectangle_19" data-name="Rectangle 19" width="14.522" height="14.796" rx="2.634" transform="translate(418.072 332.036)" fill="#fff"/>
    <rect id="Rectangle_20" data-name="Rectangle 20" width="14.51" height="14.784" rx="2.631" transform="translate(418.096 373.817)" fill="#fff"/>
    <rect id="Rectangle_21" data-name="Rectangle 21" width="14.51" height="14.784" rx="2.631" transform="translate(459.127 373.817)" fill="#fff"/>
    <path id="Path_6" data-name="Path 6" d="M343.925-667.851a1.426,1.426,0,0,1-.45,1.548q-3.062,3.021-6.1,6.067c-.4.395-.791.791-1.171,1.2a1.37,1.37,0,0,1-1.556.413,2.659,2.659,0,0,1-.636-.522q-2.013-2.033-4.028-4.062a1.279,1.279,0,0,1-.267-1.606,1.6,1.6,0,0,1,.247-.317q.43-.442.871-.873a1.287,1.287,0,0,1,1.924.01c.737.738,1.474,1.474,2.2,2.222.148.152.225.171.387.008q2.7-2.711,5.421-5.405a1.3,1.3,0,0,1,1.6-.294.965.965,0,0,1,.191.132c.4.364.78.744,1.142,1.143A2.484,2.484,0,0,1,343.925-667.851Z" transform="translate(109.058 1024.722)"/>
  </g>
</svg>
