<svg xmlns="http://www.w3.org/2000/svg" width="82.624" height="68.756" viewBox="0 0 82.624 68.756">
  <g id="Group_48" data-name="Group 48" transform="translate(-585.872 -148.427)">
    <g id="Group_1" data-name="Group 1" transform="translate(585.872 179.717)">
      <path id="Path_3" data-name="Path 3" d="M531.621-846.425a1.646,1.646,0,0,1-1.263-.526,1.738,1.738,0,0,1-.492-1.228v-12.84H517.379a1.827,1.827,0,0,1-1.3-.491,1.648,1.648,0,0,1-.527-1.263v-5.121a1.764,1.764,0,0,1,.527-1.3,1.764,1.764,0,0,1,1.3-.526h12.488v-12.419a1.706,1.706,0,0,1,.492-1.263,1.71,1.71,0,0,1,1.263-.491h5.753a1.749,1.749,0,0,1,1.228.491,1.652,1.652,0,0,1,.526,1.263v12.419h12.419a1.652,1.652,0,0,1,1.263.526,1.835,1.835,0,0,1,.491,1.3v5.121a1.711,1.711,0,0,1-.491,1.263,1.709,1.709,0,0,1-1.263.491H539.129v12.84a1.684,1.684,0,0,1-.526,1.228,1.684,1.684,0,0,1-1.228.526Z" transform="translate(-515.554 883.891)" fill="#fff"/>
    </g>
    <g id="Group_2" data-name="Group 2" transform="translate(630.749 179.717)">
      <path id="Path_4" data-name="Path 4" d="M585.039-846.425a1.648,1.648,0,0,1-1.263-.526,1.741,1.741,0,0,1-.491-1.228v-12.84H570.8a1.826,1.826,0,0,1-1.3-.491,1.648,1.648,0,0,1-.527-1.263v-5.121a1.764,1.764,0,0,1,.527-1.3,1.763,1.763,0,0,1,1.3-.526h12.488v-12.419a1.709,1.709,0,0,1,.491-1.263,1.712,1.712,0,0,1,1.263-.491h5.753a1.746,1.746,0,0,1,1.227.491,1.649,1.649,0,0,1,.526,1.263v12.419h12.419a1.654,1.654,0,0,1,1.263.526,1.834,1.834,0,0,1,.491,1.3v5.121a1.71,1.71,0,0,1-.491,1.263,1.71,1.71,0,0,1-1.263.491H592.546v12.84a1.681,1.681,0,0,1-.526,1.228,1.682,1.682,0,0,1-1.227.526Z" transform="translate(-568.972 883.891)" fill="#fff"/>
    </g>
    <g id="Group_3" data-name="Group 3" transform="translate(608.048 148.427)">
      <path id="Path_5" data-name="Path 5" d="M558.017-883.671a1.646,1.646,0,0,1-1.263-.526,1.741,1.741,0,0,1-.491-1.228v-12.839H543.775a1.83,1.83,0,0,1-1.3-.491,1.647,1.647,0,0,1-.526-1.263v-5.121a1.765,1.765,0,0,1,.526-1.3,1.765,1.765,0,0,1,1.3-.526h12.489v-12.419a1.709,1.709,0,0,1,.491-1.263,1.709,1.709,0,0,1,1.263-.491h5.754a1.746,1.746,0,0,1,1.227.491,1.652,1.652,0,0,1,.526,1.263v12.419h12.419a1.652,1.652,0,0,1,1.263.526,1.837,1.837,0,0,1,.491,1.3v5.121a1.71,1.71,0,0,1-.491,1.263,1.71,1.71,0,0,1-1.263.491H565.525v12.839A1.684,1.684,0,0,1,565-884.2a1.682,1.682,0,0,1-1.227.526Z" transform="translate(-541.951 921.136)" fill="#fff"/>
    </g>
  </g>
</svg>
