<svg xmlns="http://www.w3.org/2000/svg" width="70.403" height="70.403" viewBox="0 0 70.403 70.403">
  <g id="Group_58" data-name="Group 58" transform="translate(-962.371 -712.509)">
    <g id="Group_45" data-name="Group 45">
      <rect id="Rectangle_53" data-name="Rectangle 53" width="70.403" height="70.403" transform="translate(962.371 712.509)" fill="#fff"/>
      <g id="Group_37" data-name="Group 37" transform="translate(973.986 738.156)">
        <path id="Path_65" data-name="Path 65" d="M1122.055,1074.222c0-3.63,2.427-6.171,5.9-6.171a5.249,5.249,0,0,1,5.015,2.994,1.035,1.035,0,0,1,.113.522.683.683,0,0,1-.681.682h-.045a.755.755,0,0,1-.726-.544,3.728,3.728,0,0,0-3.653-2.315c-2.586,0-4.424,1.974-4.424,4.832,0,2.836,1.793,4.81,4.4,4.81a3.7,3.7,0,0,0,3.675-2.54.749.749,0,0,1,.7-.545.717.717,0,0,1,.727.726v.023a1.185,1.185,0,0,1-.091.476,5.058,5.058,0,0,1-5.015,3.2C1124.459,1080.37,1122.055,1077.852,1122.055,1074.222Z" transform="translate(-1122.055 -1064.284)"/>
        <path id="Path_66" data-name="Path 66" d="M1145.242,1078.656a.723.723,0,0,1-.749.817c-.477,0-.727-.318-.727-.817v-14.248c0-.522.272-.839.75-.839s.726.295.726.839v3.245h2.563a.661.661,0,1,1,0,1.316h-2.563Z" transform="translate(-1125.526 -1063.568)"/>
        <path id="Path_67" data-name="Path 67" d="M1157.963,1069.162a.688.688,0,0,1-.68.7h-.068a1.1,1.1,0,0,1-.545-.159,2.39,2.39,0,0,0-1.2-.25c-1.588,0-2.609,1.384-2.609,3.131v6.784c0,.522-.25.817-.726.817a.713.713,0,0,1-.749-.817v-10.3c0-.522.272-.839.749-.839s.726.3.726.839v.295a3.411,3.411,0,0,1,2.791-1.316,3.784,3.784,0,0,1,1.929.454A.736.736,0,0,1,1157.963,1069.162Z" transform="translate(-1126.744 -1064.284)"/>
        <path id="Path_68" data-name="Path 68" d="M1161.024,1069.106c0-.522.272-.839.749-.839s.727.295.727.839v10.3a.723.723,0,0,1-.75.817c-.476,0-.726-.318-.726-.817Z" transform="translate(-1128.286 -1064.319)"/>
        <g id="Group_36" data-name="Group 36" transform="translate(13.227)">
          <path id="Path_69" data-name="Path 69" d="M1138.312,1069.106c0-.522.272-.839.749-.839s.727.295.727.839v10.3a.723.723,0,0,1-.75.817c-.476,0-.726-.318-.726-.817Z" transform="translate(-1137.881 -1064.319)"/>
          <ellipse id="Ellipse_12" data-name="Ellipse 12" cx="1.18" cy="1.18" rx="1.18" ry="1.18"/>
        </g>
        <path id="Path_70" data-name="Path 70" d="M1171.024,1075.167l-4.061,4.765a.754.754,0,0,1-.591.295.688.688,0,0,1-.7-.68h0a.719.719,0,0,1,.2-.523l4.243-4.81-4.084-4.7a.725.725,0,0,1-.25-.544.68.68,0,0,1,.726-.681h.023a.711.711,0,0,1,.568.3l3.948,4.651,3.948-4.651a.709.709,0,0,1,.567-.3.675.675,0,0,1,.726.658v.023a.725.725,0,0,1-.25.544l-4.084,4.7,4.243,4.81a.758.758,0,0,1,.2.523.674.674,0,0,1-.7.68h0a.752.752,0,0,1-.59-.295Z" transform="translate(-1129.028 -1064.323)"/>
        <ellipse id="Ellipse_13" data-name="Ellipse 13" cx="1.18" cy="1.18" rx="1.18" ry="1.18" transform="translate(40.816)"/>
      </g>
    </g>
  </g>
</svg>
