<svg xmlns="http://www.w3.org/2000/svg" width="73.524" height="74.093" viewBox="0 0 73.524 74.093">
  <g id="Group_47" data-name="Group 47" transform="translate(-773.871 -148.803)">
    <rect id="Rectangle_22" data-name="Rectangle 22" width="17.401" height="17.401" rx="1.918" transform="translate(801.933 205.495)" fill="#fff"/>
    <path id="Path_8" data-name="Path 8" d="M794.532-845.237a2.362,2.362,0,0,1-2.387-2.369,2.433,2.433,0,0,1,2.393-2.347,2.461,2.461,0,0,1,2.392,2.406A2.386,2.386,0,0,1,794.532-845.237Z" transform="translate(16.095 1058.182)"/>
    <rect id="Rectangle_23" data-name="Rectangle 23" width="17.401" height="17.401" rx="1.918" transform="translate(829.994 197.635)" fill="#fff"/>
    <path id="Path_9" data-name="Path 9" d="M827.516-847.218a6.16,6.16,0,0,1-4.057-1.588,1.541,1.541,0,0,1-.192-2.021,2.927,2.927,0,0,1,2.412-1.3c1.251.021,2.5.016,3.754,0a2.883,2.883,0,0,1,2.413,1.388,1.53,1.53,0,0,1-.25,1.929A6.151,6.151,0,0,1,827.516-847.218Z" transform="translate(11.166 1058.53)"/>
    <path id="Path_10" data-name="Path 10" d="M827.934-854.593a2.361,2.361,0,0,1-2.387-2.369,2.432,2.432,0,0,1,2.394-2.346,2.461,2.461,0,0,1,2.392,2.405A2.386,2.386,0,0,1,827.934-854.593Z" transform="translate(10.755 1059.678)"/>
    <rect id="Rectangle_24" data-name="Rectangle 24" width="17.401" height="17.401" rx="1.918" transform="translate(773.871 197.635)" fill="#fff"/>
    <path id="Path_11" data-name="Path 11" d="M760.712-847.218a6.161,6.161,0,0,1-4.057-1.588,1.541,1.541,0,0,1-.192-2.021,2.928,2.928,0,0,1,2.412-1.3c1.251.021,2.5.016,3.754,0a2.883,2.883,0,0,1,2.413,1.388,1.53,1.53,0,0,1-.25,1.929A6.151,6.151,0,0,1,760.712-847.218Z" transform="translate(21.847 1058.53)"/>
    <path id="Path_12" data-name="Path 12" d="M761.13-854.593a2.36,2.36,0,0,1-2.386-2.369,2.431,2.431,0,0,1,2.393-2.346,2.461,2.461,0,0,1,2.392,2.405A2.386,2.386,0,0,1,761.13-854.593Z" transform="translate(21.436 1059.678)"/>
    <path id="Path_13" data-name="Path 13" d="M766.312-870.884v-5.106l5.615-4.225" transform="translate(20.226 1063.02)" fill="none" stroke="#fff" stroke-linecap="round" stroke-linejoin="round" stroke-width="3"/>
    <path id="Path_77" data-name="Path 77" d="M3.541,0H28.587a3.541,3.541,0,0,1,3.541,3.541V28.587a3.541,3.541,0,0,1-3.541,3.541H3.541A3.541,3.541,0,0,1,0,28.587V3.541A3.541,3.541,0,0,1,3.541,0Z" transform="translate(794.381 148.803)" fill="#fff"/>
    <path id="Path_14" data-name="Path 14" d="M793.145-892.355a11.383,11.383,0,0,1-7.49-2.932,2.847,2.847,0,0,1-.354-3.732,5.406,5.406,0,0,1,4.453-2.4c2.31.039,4.62.029,6.93.008a5.32,5.32,0,0,1,4.454,2.563,2.823,2.823,0,0,1-.461,3.56A11.36,11.36,0,0,1,793.145-892.355Z" transform="translate(17.276 1066.411)"/>
    <path id="Path_15" data-name="Path 15" d="M793.917-905.973a4.358,4.358,0,0,1-4.406-4.374,4.491,4.491,0,0,1,4.418-4.333,4.544,4.544,0,0,1,4.416,4.442A4.4,4.4,0,0,1,793.917-905.973Z" transform="translate(16.516 1068.531)"/>
    <line id="Line_1" data-name="Line 1" y1="13.185" transform="translate(810.633 186.869)" fill="none" stroke="#fff" stroke-linecap="round" stroke-linejoin="round" stroke-width="3"/>
    <path id="Path_16" data-name="Path 16" d="M822.6-870.884v-5.106l-5.615-4.225" transform="translate(12.124 1063.02)" fill="none" stroke="#fff" stroke-linecap="round" stroke-linejoin="round" stroke-width="3"/>
    <path id="Path_73" data-name="Path 73" d="M794.114-837.861a6.161,6.161,0,0,1-4.057-1.589,1.541,1.541,0,0,1-.192-2.021,2.926,2.926,0,0,1,2.412-1.3c1.251.02,2.5.015,3.754,0a2.884,2.884,0,0,1,2.413,1.389,1.529,1.529,0,0,1-.25,1.928A6.152,6.152,0,0,1,794.114-837.861Z" transform="translate(16.299 1057.034)"/>
  </g>
</svg>
