<svg xmlns="http://www.w3.org/2000/svg" width="95.275" height="56.757" viewBox="0 0 95.275 56.757">
  <g id="Group_55" data-name="Group 55" transform="translate(-414.854 -720.693)">
    <rect id="Rectangle_41" data-name="Rectangle 41" width="57.034" height="17.601" rx="3.478" transform="translate(414.854 720.693)" fill="#fff"/>
    <rect id="Rectangle_42" data-name="Rectangle 42" width="57.034" height="13.705" rx="3.478" transform="translate(414.854 742.122)" fill="#fff"/>
    <rect id="Rectangle_43" data-name="Rectangle 43" width="57.034" height="17.601" rx="3.478" transform="translate(414.854 759.849)" fill="#fff"/>
    <path id="Path_58" data-name="Path 58" d="M472.357,1097.205H459.7a1.781,1.781,0,0,1-1.985-1.974q0-8.468,0-16.937a1.778,1.778,0,0,1,1.984-1.974c2.082,0,4.164-.007,6.245.011a.968.968,0,0,1,.6.245c.575.533,1.129,1.09,1.67,1.658a2.817,2.817,0,0,0,2.158.9c4.894-.011,9.788.011,14.682-.018a1.832,1.832,0,0,1,1.928,1.936c-.016,4.742-.006,9.482-.007,14.224a1.77,1.77,0,0,1-1.931,1.931Z" transform="translate(23.148 -338.445)" fill="#fff"/>
    <g id="Group_32" data-name="Group 32" transform="translate(418.407 730.674)">
      <rect id="Rectangle_44" data-name="Rectangle 44" width="4.212" height="4.291" rx="0.764"/>
      <rect id="Rectangle_45" data-name="Rectangle 45" width="4.212" height="4.291" rx="0.764" transform="translate(5.517)"/>
      <rect id="Rectangle_46" data-name="Rectangle 46" width="4.212" height="4.291" rx="0.764" transform="translate(11.033)"/>
    </g>
    <g id="Group_33" data-name="Group 33" transform="translate(418.407 748.317)">
      <rect id="Rectangle_47" data-name="Rectangle 47" width="4.212" height="4.291" rx="0.764"/>
      <rect id="Rectangle_48" data-name="Rectangle 48" width="4.212" height="4.291" rx="0.764" transform="translate(5.517)"/>
      <rect id="Rectangle_49" data-name="Rectangle 49" width="4.212" height="4.291" rx="0.764" transform="translate(11.033)"/>
    </g>
    <g id="Group_34" data-name="Group 34" transform="translate(418.407 769.511)">
      <rect id="Rectangle_50" data-name="Rectangle 50" width="4.212" height="4.291" rx="0.764" transform="translate(0 0)"/>
      <rect id="Rectangle_51" data-name="Rectangle 51" width="4.212" height="4.291" rx="0.764" transform="translate(5.517 0)"/>
      <rect id="Rectangle_52" data-name="Rectangle 52" width="4.212" height="4.291" rx="0.764" transform="translate(11.033 0)"/>
    </g>
  </g>
</svg>
