<svg xmlns="http://www.w3.org/2000/svg" width="54.338" height="69.16" viewBox="0 0 54.338 69.16">
  <g id="Group_46" data-name="Group 46" transform="translate(-782.864 -335.612)">
    <path id="Path_19" data-name="Path 19" d="M760.751-662.788q0-13.5,0-27.007c0-2.123.885-3.02,2.979-3.02q19.445,0,38.891,0a12.29,12.29,0,0,1,12.217,9.971,12.228,12.228,0,0,1,.238,2.45q.02,26.969.009,53.939a2.507,2.507,0,0,1-2.825,2.79q-19.485,0-38.969,0a12.334,12.334,0,0,1-12.539-12.578Q760.742-649.515,760.751-662.788Zm27.174-7.8c4.013,0,8.026.014,12.038-.018a3.576,3.576,0,0,0,1.61-.394,2.34,2.34,0,0,0,1.086-2.656,2.475,2.475,0,0,0-2.518-1.868q-12.231-.009-24.462,0a2.854,2.854,0,0,0-.687.071,2.47,2.47,0,0,0-1.881,2.651,2.483,2.483,0,0,0,2.545,2.209C779.746-670.581,783.835-670.589,787.925-670.588Zm-.084,14.819q6.134,0,12.27,0a2.5,2.5,0,0,0,2.447-1.546,2.485,2.485,0,0,0-2.488-3.388q-9.492-.011-18.983,0c-1.826,0-3.652-.01-5.478.005a2.443,2.443,0,0,0-2.341,1.578,2.472,2.472,0,0,0,2.459,3.353C779.764-655.761,783.8-655.769,787.841-655.769Zm0,14.818q6.134,0,12.27,0a2.5,2.5,0,0,0,2.447-1.547,2.485,2.485,0,0,0-2.488-3.388q-9.492-.01-18.983,0c-1.826,0-3.652-.01-5.478.005a2.443,2.443,0,0,0-2.341,1.578,2.472,2.472,0,0,0,2.459,3.353C779.764-640.943,783.8-640.951,787.841-640.951Z" transform="translate(22.115 1028.431)" fill="#fff"/>
  </g>
</svg>
