<svg xmlns="http://www.w3.org/2000/svg" width="71.041" height="71.015" viewBox="0 0 71.041 71.015">
  <g id="Group_57" data-name="Group 57" transform="translate(-776.354 -712.66)">
    <path id="Path_63" data-name="Path 63" d="M873.718,1084.945v-32.2c.045-.385.1-.77.134-1.157a55.771,55.771,0,0,1,.624-6.05c1.256-5.968,4.943-9.783,10.79-11.448a32.223,32.223,0,0,1,8.737-.84q14.259-.068,28.517-.022a45.423,45.423,0,0,1,9.939.69,14.394,14.394,0,0,1,11.358,10.641,32.561,32.561,0,0,1,.895,9.074c.049,9.387.072,18.776.007,28.164a74.157,74.157,0,0,1-.565,9.4,14.2,14.2,0,0,1-7.75,10.93c-2.624,1.437-5.52,1.738-8.434,1.934q-1.309.088-2.619.172h-32.2c-.341-.043-.682-.1-1.024-.125-1.793-.156-3.6-.2-5.377-.48a14.5,14.5,0,0,1-10.926-7.775c-1.437-2.624-1.732-5.52-1.933-8.431Q873.8,1086.184,873.718,1084.945Zm33.621-37.971h-10.98V1089.1h28.832v-10.045H907.34Z" transform="translate(-97.364 -320.559)" fill="#fff"/>
  </g>
</svg>
