<svg xmlns="http://www.w3.org/2000/svg" width="60" height="63.985" viewBox="0 0 60 63.985">
  <g id="Group_65" data-name="Group 65" transform="translate(-6 -4.017)">
    <path id="Path_89" data-name="Path 89" d="M60.01,16.034l-18-10.416a12.127,12.127,0,0,0-6.755-1.565c-2.049.187-5.217,2.712-5.306,2.779l-.329.235c-.108.074-.215.147-.318.226-.208.161-.405.331-.6.5-.049.043-.1.085-.151.126l.007.008A11.021,11.021,0,0,0,25,16V28.506l4.99-2.888a12,12,0,0,1,12.02,0l18,10.416A12,12,0,0,1,65.993,46c0-.14.007-.28.007-.42V26.42A12,12,0,0,0,60.01,16.034Z" fill="#fff"/>
    <path id="Path_90" data-name="Path 90" d="M59.509,36.9,48,30.24v5.341a12,12,0,0,1-5.988,10.386l-18,10.42a12,12,0,0,1-9.3,1.155l15.278,8.845a12,12,0,0,0,12.024,0l18-10.421a11.9,11.9,0,0,0,3.44-3,9.514,9.514,0,0,0,1.491-8.249A12.619,12.619,0,0,0,59.509,36.9Z" fill="#fff"/>
    <path id="Path_91" data-name="Path 91" d="M29.988,45.967A12,12,0,0,1,24,35.582v-6.5h0V16a11.981,11.981,0,0,1,3.88-8.8l-.115.083c.086-.081.184-.15.273-.229.213-.19.427-.375.655-.55.149-.115.306-.22.462-.328.182-.127.351-.267.541-.384l.294-.171-18,10.416A12,12,0,0,0,6,26.42V45.581a11.989,11.989,0,0,0,3.338,8.287A15.158,15.158,0,0,0,18,57a11.008,11.008,0,0,0,5.512-1.481L35,48.87Zm0-40.349.045-.022S30.072,5.571,29.99,5.618Z" fill="#fff"/>
  </g>
</svg>
