<svg xmlns="http://www.w3.org/2000/svg" width="119.589" height="25.558" viewBox="0 0 119.589 25.558">
  <g id="Group_64" data-name="Group 64" transform="translate(-0.5 -0.9)">
    <g id="Group_62" data-name="Group 62" transform="translate(0.5 0.9)">
      <g id="Group_60" data-name="Group 60">
        <path id="Path_80" data-name="Path 80" d="M.5,13.679A12.094,12.094,0,0,1,1.536,8.671,12.1,12.1,0,0,1,4.3,4.613,14.352,14.352,0,0,1,8.53,1.85,13.865,13.865,0,0,1,13.97.9a16,16,0,0,1,5.44.95,12,12,0,0,1,4.231,2.763A10.959,10.959,0,0,1,26.4,8.671a12.094,12.094,0,0,1,1.036,5.008A12.094,12.094,0,0,1,26.4,18.687a12.1,12.1,0,0,1-2.763,4.058,14.352,14.352,0,0,1-4.231,2.763,13.865,13.865,0,0,1-5.44.95,15.63,15.63,0,0,1-5.44-.95A12.831,12.831,0,0,1,4.3,22.746a12.1,12.1,0,0,1-2.763-4.058A12.094,12.094,0,0,1,.5,13.679Zm6.562,0a7.036,7.036,0,0,0,.518,2.677,6.377,6.377,0,0,0,1.468,2.159A7.092,7.092,0,0,0,11.207,19.9a6.608,6.608,0,0,0,2.59.518,6.309,6.309,0,0,0,2.59-.518,6.183,6.183,0,0,0,2.159-1.382,6.377,6.377,0,0,0,1.468-2.159,7.174,7.174,0,0,0,0-5.353,7.355,7.355,0,0,0-1.468-2.159,7.036,7.036,0,0,0-4.835-1.9,6.309,6.309,0,0,0-2.59.518A6.183,6.183,0,0,0,8.962,8.844,6.377,6.377,0,0,0,7.494,11,9.142,9.142,0,0,0,7.062,13.679Z" transform="translate(-0.5 -0.9)" fill="#fff"/>
      </g>
      <g id="Group_61" data-name="Group 61">
        <path id="Path_81" data-name="Path 81" d="M.5,13.679A12.094,12.094,0,0,1,1.536,8.671,12.1,12.1,0,0,1,4.3,4.613,14.352,14.352,0,0,1,8.53,1.85,13.865,13.865,0,0,1,13.97.9a16,16,0,0,1,5.44.95,12,12,0,0,1,4.231,2.763A10.959,10.959,0,0,1,26.4,8.671a12.094,12.094,0,0,1,1.036,5.008A12.094,12.094,0,0,1,26.4,18.687a12.1,12.1,0,0,1-2.763,4.058,14.352,14.352,0,0,1-4.231,2.763,13.865,13.865,0,0,1-5.44.95,15.63,15.63,0,0,1-5.44-.95A12.831,12.831,0,0,1,4.3,22.746a12.1,12.1,0,0,1-2.763-4.058A12.094,12.094,0,0,1,.5,13.679Zm6.562,0a7.036,7.036,0,0,0,.518,2.677,6.377,6.377,0,0,0,1.468,2.159A7.092,7.092,0,0,0,11.207,19.9a6.608,6.608,0,0,0,2.59.518,6.309,6.309,0,0,0,2.59-.518,6.183,6.183,0,0,0,2.159-1.382,6.377,6.377,0,0,0,1.468-2.159,7.174,7.174,0,0,0,0-5.353,7.355,7.355,0,0,0-1.468-2.159,7.036,7.036,0,0,0-4.835-1.9,6.309,6.309,0,0,0-2.59.518A6.183,6.183,0,0,0,8.962,8.844,6.377,6.377,0,0,0,7.494,11,9.142,9.142,0,0,0,7.062,13.679Z" transform="translate(-0.5 -0.9)" fill="#fff"/>
      </g>
    </g>
    <g id="Group_63" data-name="Group 63" transform="translate(32.448 5.476)">
      <path id="Path_82" data-name="Path 82" d="M37.5,13.626A7.028,7.028,0,0,1,44.753,6.2a7.028,7.028,0,0,1,7.253,7.426,7.255,7.255,0,1,1-14.506,0Zm12.175,0c0-3.195-2.072-5.44-4.922-5.44-2.936,0-4.922,2.245-4.922,5.44s2.072,5.44,4.922,5.44C47.689,18.979,49.675,16.821,49.675,13.626Z" transform="translate(-37.5 -6.2)" fill="#fff"/>
      <path id="Path_83" data-name="Path 83" d="M66.757,14.963v5.353c0,.777-.432,1.036-.95,1.036h-.259c-.6,0-.95-.259-.95-1.036V15.222c0-1.813-.95-2.936-2.418-2.936A3.453,3.453,0,0,0,59.159,14.1V20.23c0,.777-.432,1.036-.95,1.036H57.95c-.6,0-.95-.259-.95-1.036v-9.5c0-.086.345-.259.777-.259.6,0,1.3.345,1.382,1.727a4.106,4.106,0,0,1,3.54-1.9C65.462,10.386,66.757,12.286,66.757,14.963Z" transform="translate(-40.163 -6.76)" fill="#fff"/>
      <path id="Path_84" data-name="Path 84" d="M76.012,10.4c3.108,0,5.094,2.159,5.094,5.353v.173c0,.432-.173.6-.691.6H72.559v.432a3.463,3.463,0,0,0,3.54,2.849A3.526,3.526,0,0,0,79.466,18s1.122.173,1.122,1.123c0,.432-.432,1.036-1.209,1.554a6.031,6.031,0,0,1-3.368.863A5.28,5.28,0,0,1,70.4,16.012,5.6,5.6,0,0,1,76.012,10.4Zm-.086,1.641a3.437,3.437,0,0,0-3.368,3.022h6.39A2.9,2.9,0,0,0,75.926,12.041Z" transform="translate(-41.992 -6.773)" fill="#fff"/>
      <path id="Path_85" data-name="Path 85" d="M84.4,18.2a1.375,1.375,0,0,1,1.036-1.209,5.063,5.063,0,0,0,4.317,2.159c1.986,0,3.108-.777,3.108-2.245,0-1.641-1.641-1.986-3.54-2.418-2.245-.518-4.49-1.3-4.49-4.145,0-2.418,2.072-4.145,5.181-4.145a6.129,6.129,0,0,1,4.058,1.209,1.789,1.789,0,0,1,.863,1.382c0,.777-1.036,1.3-1.036,1.3a4.578,4.578,0,0,0-3.8-1.9c-1.813,0-2.936.863-2.936,2.159,0,1.554,1.382,1.813,3.368,2.245,2.418.518,4.749,1.468,4.749,4.231,0,2.59-2.072,4.231-5.353,4.231a6.928,6.928,0,0,1-4.663-1.468A1.926,1.926,0,0,1,84.4,18.2Z" transform="translate(-43.904 -6.2)" fill="#fff"/>
      <path id="Path_86" data-name="Path 86" d="M110.193,16.012c0,3.368-2.072,5.612-5.008,5.612a4.071,4.071,0,0,1-3.627-1.986v5.008c0,.777-.432,1.036-.95,1.036h-.259c-.6,0-.95-.259-.95-1.036V10.832c0-.086.345-.259.777-.259a1.276,1.276,0,0,1,1.3,1.209c0,.086.086.432.086.6a4.284,4.284,0,0,1,3.713-1.986C108.035,10.4,110.193,12.645,110.193,16.012Zm-2.159,0c0-2.245-1.382-3.8-3.281-3.8a3.3,3.3,0,0,0-3.281,2.245V16.7a3.137,3.137,0,0,0,3.281,3.108C106.739,19.812,108.035,18.257,108.035,16.012Z" transform="translate(-45.952 -6.773)" fill="#fff"/>
      <path id="Path_87" data-name="Path 87" d="M120.667,14.89h.259v-.259a2.3,2.3,0,0,0-2.59-2.5,3.119,3.119,0,0,0-3.022,1.813s-1.382,0-1.382-1.036a1.938,1.938,0,0,1,.691-1.3,5.364,5.364,0,0,1,3.8-1.209c3.022,0,4.663,1.554,4.663,4.231v6.476c0,.086-.432.259-.777.259a1.21,1.21,0,0,1-1.3-.95c0-.173-.086-.432-.086-.691a4.63,4.63,0,0,1-3.8,1.813c-2.245,0-3.627-1.209-3.627-3.022C113.5,16.1,115.918,14.976,120.667,14.89Zm.259,1.382h-.6c-3.108.086-4.663.691-4.663,2.159,0,.95.777,1.554,1.986,1.554a2.993,2.993,0,0,0,3.281-2.849Z" transform="translate(-47.877 -6.773)" fill="#fff"/>
      <path id="Path_88" data-name="Path 88" d="M137.457,14.963v5.353c0,.777-.432,1.036-.95,1.036h-.259c-.6,0-.95-.259-.95-1.036V15.222c0-1.813-.95-2.936-2.418-2.936a3.453,3.453,0,0,0-3.022,1.813V20.23c0,.777-.432,1.036-.95,1.036h-.259c-.6,0-.95-.259-.95-1.036v-9.5c0-.086.345-.259.777-.259.6,0,1.3.345,1.382,1.727a4.106,4.106,0,0,1,3.54-1.9C136.162,10.386,137.457,12.286,137.457,14.963Z" transform="translate(-49.816 -6.76)" fill="#fff"/>
    </g>
  </g>
</svg>
