<svg xmlns="http://www.w3.org/2000/svg" xmlns:xlink="http://www.w3.org/1999/xlink" width="80.091" height="69.535" viewBox="0 0 80.091 69.535">
  <defs>
    <clipPath id="clip-path">
      <path id="Path_35" data-name="Path 35" d="M366.525-894.486a25.358,25.358,0,0,0-25.358-25.359,25.24,25.24,0,0,0-14.687,4.684,25.242,25.242,0,0,0-14.688-4.684,25.358,25.358,0,0,0-25.358,25.359,25.287,25.287,0,0,0,8.014,18.5h0l10.79,10.654,9.74,9.723,0,0a15.333,15.333,0,0,0,11.613,5.305,15.329,15.329,0,0,0,11.11-4.752l0,0,21.212-21.32h0A25.281,25.281,0,0,0,366.525-894.486Z" transform="translate(-286.434 919.845)" fill="none"/>
    </clipPath>
  </defs>
  <g id="Group_49" data-name="Group 49" transform="translate(-402.384 -149.511)">
    <path id="Path_2" data-name="Path 2" d="M366.525-894.486a25.358,25.358,0,0,0-25.358-25.359,25.24,25.24,0,0,0-14.687,4.684,25.242,25.242,0,0,0-14.688-4.684,25.358,25.358,0,0,0-25.358,25.359,25.287,25.287,0,0,0,8.014,18.5h0l10.79,10.654,9.74,9.723,0,0a15.333,15.333,0,0,0,11.613,5.305,15.329,15.329,0,0,0,11.11-4.752l0,0,21.212-21.32h0A25.281,25.281,0,0,0,366.525-894.486Z" transform="translate(115.95 1069.356)" fill="#fff"/>
    <path id="Path_75" data-name="Path 75" d="M804.07-880.538a26.215,26.215,0,0,1-17.25-6.752,6.557,6.557,0,0,1-.816-8.594c2.589-3.283,5.756-5.611,10.256-5.537,5.319.089,10.639.068,15.96.017,4.6-.043,7.754,2.465,10.258,5.9,1.759,2.415,1.112,6.218-1.062,8.2A26.162,26.162,0,0,1,804.07-880.538Z" transform="translate(-361.695 1087.084)"/>
    <path id="Path_76" data-name="Path 76" d="M799.658-894.628c-5.756.435-10.223-5.061-10.146-10.073a10.342,10.342,0,0,1,10.175-9.979,10.464,10.464,0,0,1,10.169,10.229A10.143,10.143,0,0,1,799.658-894.628Z" transform="translate(-357.255 1074.692)"/>
  </g>
</svg>
