<svg xmlns="http://www.w3.org/2000/svg" width="18.546" height="18.546" viewBox="0 0 18.546 18.546"><defs><style>.a{fill:#fff;}</style></defs><circle class="a" cx="9.273" cy="9.273" r="9.273"/><path d="M8.649,13.439a.365.365,0,0,1-.281-.117.386.386,0,0,1-.109-.273V10.193H5.483a.4.4,0,0,1-.288-.109A.369.369,0,0,1,5.077,9.8V8.668a.4.4,0,0,1,.406-.406H8.261V5.5a.373.373,0,0,1,.39-.39h1.28a.386.386,0,0,1,.273.109.365.365,0,0,1,.117.281V8.262h2.762a.369.369,0,0,1,.281.118.408.408,0,0,1,.109.288V9.807a.373.373,0,0,1-.39.39H10.321v2.856a.4.4,0,0,1-.39.39Z"/></svg>