<svg id="Group_18" data-name="Group 18" xmlns="http://www.w3.org/2000/svg" width="18.546" height="18.546" viewBox="0 0 18.546 18.546">
  <circle id="Ellipse_7" data-name="Ellipse 7" cx="9.273" cy="9.273" r="9.273" fill="#ffdf19"/>
  <g id="Group_17" data-name="Group 17" transform="translate(5.075 5.106)">
    <path id="Path_45" data-name="Path 45" d="M1092.666-931.629a.365.365,0,0,1-.281-.117.387.387,0,0,1-.109-.273v-2.856H1089.5a.407.407,0,0,1-.288-.109.368.368,0,0,1-.118-.281V-936.4a.39.39,0,0,1,.118-.288.39.39,0,0,1,.288-.118h2.778v-2.762a.379.379,0,0,1,.109-.281.381.381,0,0,1,.281-.109h1.28a.39.39,0,0,1,.273.109.366.366,0,0,1,.117.281v2.762h2.762a.369.369,0,0,1,.281.118.408.408,0,0,1,.109.288v1.139a.383.383,0,0,1-.109.281.385.385,0,0,1-.281.109h-2.762v2.856a.374.374,0,0,1-.117.273.373.373,0,0,1-.273.117Z" transform="translate(-1089.092 939.962)"/>
  </g>
</svg>
