<svg xmlns="http://www.w3.org/2000/svg" width="102.786" height="64" viewBox="0 0 102.786 64">
  <g id="Group_59" data-name="Group 59" transform="translate(-929.137 -40.698)">
    <path id="Path_38" data-name="Path 38" d="M931.047,67.48a2.025,2.025,0,0,0-1.775,2.749c2.4,6.268,9.394,22.429,19.8,29.148,9.876,6.376,17.356,6.509,22.408,3.1a2.3,2.3,0,0,0,.1-3.693L954.555,85.166a.472.472,0,0,1,.51-.79l19.417,9.913a2.3,2.3,0,0,0,3.324-1.613c1.026-6.007-2.173-12.77-12.049-19.146C955.354,66.808,937.749,67.088,931.047,67.48Z" fill="#fff"/>
    <path id="Path_39" data-name="Path 39" d="M1030.012,67.48a2.025,2.025,0,0,1,1.775,2.749c-2.4,6.268-9.393,22.429-19.8,29.148-9.876,6.376-17.357,6.509-22.409,3.1a2.3,2.3,0,0,1-.563-3.2,2.267,2.267,0,0,1,.464-.489L1006.5,85.166a.472.472,0,0,0-.51-.79l-19.417,9.913a2.3,2.3,0,0,1-3.323-1.613c-1.026-6.007,2.172-12.77,12.049-19.146C1005.705,66.808,1023.311,67.088,1030.012,67.48Z" fill="#fff"/>
    <path id="Path_40" data-name="Path 40" d="M982.165,41.531a2.023,2.023,0,0,0-2.826-.445,2,2,0,0,0-.445.445c-3.962,5.419-13.747,20.057-13.747,32.444,0,11.755,3.946,18.111,9.549,20.508a2.3,2.3,0,0,0,3.158-1.918l2.205-21.689a.473.473,0,0,1,.941,0l2.205,21.689a2.3,2.3,0,0,0,3.158,1.918c5.6-2.4,9.549-8.753,9.549-20.508C995.912,61.586,986.127,46.949,982.165,41.531Z" fill="#fff"/>
  </g>
</svg>
