<svg id="Group_28" data-name="Group 28" xmlns="http://www.w3.org/2000/svg" width="110.858" height="42.555" viewBox="0 0 110.858 42.555">
  <path id="Path_1" data-name="Path 1" d="M625.617-1065.038v-5.727h4.358c2.223,0,3.543,1,3.543,2.827v.057c0,1.721-1.37,2.841-3.511,2.841Zm10.946-3.018v-.044a5.179,5.179,0,0,0-1.413-3.681,6.881,6.881,0,0,0-4.924-1.708h-7.613v17.063h3v-5.946h3.653l4.8,5.947,3.423-.005-5.117-6.353a5.362,5.362,0,0,0,4.187-5.272" transform="translate(-608.41 1086.234)" fill="#fff"/>
  <path id="Path_2" data-name="Path 2" d="M691.4-1051.48a19.381,19.381,0,0,1-15.934-8.355,21.288,21.288,0,0,0,0-22.082,19.392,19.392,0,0,1,26.984-4.892,19.391,19.391,0,0,1,4.892,26.984,19.393,19.393,0,0,1-15.942,8.345m-17.061-28.613a19.365,19.365,0,0,1,0,18.44,19.373,19.373,0,0,1,0-18.44m-17.061,28.617a19.385,19.385,0,0,1-15.97-8.405,21.285,21.285,0,0,0,0-21.984,19.371,19.371,0,0,1,26.935-5,19.374,19.374,0,0,1,4.967,4.95,21.292,21.292,0,0,0,0,22.083,19.387,19.387,0,0,1-15.934,8.356m-17.092-28.554a19.365,19.365,0,0,1,0,18.315,19.357,19.357,0,0,1,0-18.315m-17.093,28.554a19.4,19.4,0,0,1-19.41-19.383,19.4,19.4,0,0,1,19.383-19.411,19.4,19.4,0,0,1,16,8.4,21.288,21.288,0,0,0,0,21.984,19.384,19.384,0,0,1-15.968,8.405m68.3-40.672a21.244,21.244,0,0,0-17.061,8.562,21.275,21.275,0,0,0-29.772-4.346,21.278,21.278,0,0,0-4.38,4.391,21.276,21.276,0,0,0-29.761-4.428,21.276,21.276,0,0,0-4.429,29.761,21.277,21.277,0,0,0,29.762,4.429,21.3,21.3,0,0,0,4.428-4.429,21.274,21.274,0,0,0,29.758,4.428,21.26,21.26,0,0,0,4.394-4.383,21.274,21.274,0,0,0,29.77,4.348,21.274,21.274,0,0,0,4.349-29.77,21.276,21.276,0,0,0-17.058-8.563" transform="translate(-601.809 1092.152)" fill="#fff"/>
  <path id="Path_3" data-name="Path 3" d="M728.066-1065.038v-5.727h4.359c2.221,0,3.542,1,3.542,2.827v.057c0,1.721-1.369,2.841-3.511,2.841Zm10.946-3.019v-.045a5.178,5.178,0,0,0-1.413-3.681,6.88,6.88,0,0,0-4.924-1.708h-7.611v17.063h3v-5.946h3.653l4.8,5.948,3.425-.005-5.118-6.353a5.362,5.362,0,0,0,4.186-5.272" transform="translate(-640.917 1086.234)" fill="#fff"/>
  <path id="Path_4" data-name="Path 4" d="M678.661-1058.328a2.688,2.688,0,0,1-2.812-2.558,2.777,2.777,0,0,1,.008-.36c0-2.066,1.645-2.637,2.663-3.269l3.6,4.45a4.626,4.626,0,0,1-3.454,1.737m1-13.853a1.816,1.816,0,0,1,1.773,1.857c0,.046,0,.091-.009.136,0,1.4-1.007,2.113-2.042,2.818-.628-.862-1.572-1.755-1.572-2.894a1.81,1.81,0,0,1,1.7-1.919h0c.052,0,.105-.005.158,0m6.875,7.079h-2.465a11.713,11.713,0,0,1-.607,2.657l-2.639-3.282a5.078,5.078,0,0,0,3.067-4.375,4.02,4.02,0,0,0-4.317-4.146,4.064,4.064,0,0,0-4.26,3.858h0c0,.09-.006.179,0,.268a6.3,6.3,0,0,0,1.736,3.794c-1.975,1.016-3.973,2.583-3.973,5.019,0,3.257,2.3,5.163,5.475,5.163a5.871,5.871,0,0,0,4.862-2.288l1.563,1.942,3.289-.006-3.215-3.985a12.15,12.15,0,0,0,1.485-4.619" transform="translate(-624.425 1086.474)" fill="#fff"/>
</svg>
