<svg xmlns="http://www.w3.org/2000/svg" width="70.839" height="69.73" viewBox="0 0 70.839 69.73">
  <g id="Group_43" data-name="Group 43" transform="translate(-959.045 -331.516)">
    <path id="Path_21" data-name="Path 21" d="M1045.052-697.7h-49.78a10.56,10.56,0,0,0-10.529,10.528v36.727a10.56,10.56,0,0,0,10.529,10.528H998.7c.382.166.207.591-.242,1.72-1.048,2.638-2.168,5.246-3.2,7.89-.506,1.3-.355,1.789.681,2.335h.551a9.128,9.128,0,0,0,2.307-.807q8.954-5.284,17.9-10.578a4.8,4.8,0,0,1,1.4-.56h26.95a10.56,10.56,0,0,0,10.529-10.528v-36.727A10.56,10.56,0,0,0,1045.052-697.7Z" transform="translate(-25.698 1029.211)" fill="#fff"/>
    <path id="Path_22" data-name="Path 22" d="M1027.231-667.594c0-.583-.325-.979-.9-.888-1.323.208-1.852-.354-2.336-1.586-.46-1.169-.684-1.962.471-2.76a.785.785,0,0,0,.049-1.272q-1.491-1.539-3-3.054c-.4-.4-.914-.492-1.262-.011-.79,1.092-1.549,1.053-2.756.5-1.163-.532-1.911-.951-1.663-2.364.1-.584-.308-.938-.933-.938-1.4,0-2.808,0-4.212,0-.592,0-.991.361-.89.9.263,1.413-.489,1.835-1.643,2.378-1.173.552-1.905.636-2.685-.453a.776.776,0,0,0-1.267-.054c-1.015,1-2.03,2.01-3.024,3.034a.77.77,0,0,0,.039,1.265c1.138.786.991,1.587.5,2.771s-.981,1.777-2.3,1.556a.816.816,0,0,0-.98.9c-.014,1.428-.017,2.856,0,4.284.008.541.351.938.875.848,1.354-.235,1.811.429,2.319,1.6.517,1.192.618,1.971-.5,2.76a.756.756,0,0,0-.061,1.214q1.52,1.56,3.084,3.077a.754.754,0,0,0,1.215-.037c.8-1.186,1.631-.993,2.825-.5,1.148.474,1.742.923,1.548,2.23-.108.722.255,1,.989,1.015.968.015,1.937.008,2.9,0,1.83-.008,2.238.315,2.132-2.088a.6.6,0,0,1,.518-.717,6.365,6.365,0,0,0,1.737-.711,1,1,0,0,1,1.564.247,1.656,1.656,0,0,0,1.314.817c.133.016.339-.148.533-.341.941-.942,1.891-1.875,2.821-2.827.559-.572.611-1.007,0-1.473-.974-.745-.948-1.416-.5-2.541.523-1.3,1.071-2.005,2.544-1.721.566.109.916-.266.92-.858Q1027.247-665.488,1027.231-667.594Zm-14.447,8.824a6.655,6.655,0,0,1-6.665-6.78,6.658,6.658,0,0,1,6.664-6.634,6.645,6.645,0,0,1,6.715,6.8A6.755,6.755,0,0,1,1012.785-658.77Z" transform="translate(-27.886 1026.376)"/>
    <g id="Group_9" data-name="Group 9" transform="translate(1000.943 346.407)">
      <path id="Path_41" data-name="Path 41" d="M1050.395-677.815a7.62,7.62,0,0,1,2.481,6.077,7.012,7.012,0,0,1-2.366,5.635,9.449,9.449,0,0,1-6.25,2.057l-.142,2.129a.809.809,0,0,1-.807.755h-4.225a.809.809,0,0,1-.809-.787l-.149-5.536a.81.81,0,0,1,.809-.831h1.477a10.988,10.988,0,0,0,4.518-.731,2.671,2.671,0,0,0,1.558-2.654,2.947,2.947,0,0,0-.731-2.115,2.679,2.679,0,0,0-2.039-.77,2.871,2.871,0,0,0-2.153.789,2.67,2.67,0,0,0-.713,1.448.813.813,0,0,1-.794.686h-4.632a.819.819,0,0,1-.812-.871,7.732,7.732,0,0,1,.969-3.36,7.483,7.483,0,0,1,3.155-2.981,10.8,10.8,0,0,1,5.057-1.1A9.712,9.712,0,0,1,1050.395-677.815Zm-11.962,25.636a3.3,3.3,0,0,1-1.1-2.519,3.405,3.405,0,0,1,1.1-2.577,3.94,3.94,0,0,1,2.827-1.038,3.891,3.891,0,0,1,2.789,1.038,3.409,3.409,0,0,1,1.1,2.577,3.3,3.3,0,0,1-1.1,2.519,3.936,3.936,0,0,1-2.789,1.019A3.985,3.985,0,0,1,1038.432-652.179Z" transform="translate(-1034.615 679.969)"/>
    </g>
  </g>
</svg>
