<svg xmlns="http://www.w3.org/2000/svg" width="78.336" height="70.292" viewBox="0 0 78.336 70.292">
  <g id="Group_44" data-name="Group 44" transform="translate(-953.856 -140.824)">
    <path id="Path_1" data-name="Path 1" d="M1040.241-893.162,1016.9-881.392a3.008,3.008,0,0,1-1.18.3,1.28,1.28,0,0,1-.3.037,1.265,1.265,0,0,1-.407-.077,2.951,2.951,0,0,1-.833-.262l-1.038-.664-22.422-11.36v18.208s-.233,3.755,2.793,5.125a35.758,35.758,0,0,0,21.877,8.688v.007l.089,0,.09,0v-.007a35.754,35.754,0,0,0,21.877-8.688c3.027-1.369,2.793-5.125,2.793-5.125Zm10.374-15.438-33.854-16.691a3.019,3.019,0,0,0-2.67,0L980.23-908.6a2.972,2.972,0,0,0-1.664,2.649,2.971,2.971,0,0,0,1.64,2.664l10.516,5.3v.066c.013.006.025.008.038.014l1.852.938c-.038-.042-.072-.075-.113-.123l21.564,10.874a3.02,3.02,0,0,0,1.359.323,3.02,3.02,0,0,0,1.359-.323l33.857-17.073a2.968,2.968,0,0,0,1.639-2.664A2.971,2.971,0,0,0,1050.615-908.6Z" transform="translate(-24.71 1066.426)" fill="#fff"/>
    <g id="Group_4" data-name="Group 4" transform="translate(989.286 159.31)">
      <path id="Path_17" data-name="Path 17" d="M1059.022-872.235a1.255,1.255,0,0,1-1.255-1.255v-27.6h-35.773a1.255,1.255,0,0,1-1.255-1.255,1.255,1.255,0,0,1,1.255-1.255h37.028a1.255,1.255,0,0,1,1.255,1.255v28.852A1.255,1.255,0,0,1,1059.022-872.235Z" transform="translate(-1020.739 903.597)" fill="#fff"/>
    </g>
    <circle id="Ellipse_3" data-name="Ellipse 3" cx="4.564" cy="4.564" r="4.564" transform="translate(1023.063 185.784)" fill="#fff"/>
    <path id="Path_18" data-name="Path 18" d="M1065.508-863.936a4.565,4.565,0,0,0-4.564,4.564v9.357a4.564,4.564,0,0,0,4.564,4.564,4.564,4.564,0,0,0,4.564-4.564v-9.357A4.564,4.564,0,0,0,1065.508-863.936Z" transform="translate(-37.881 1056.566)" fill="#fff"/>
  </g>
</svg>
