<svg xmlns="http://www.w3.org/2000/svg" width="69.939" height="69.939" viewBox="0 0 69.939 69.939">
  <g id="Group_53" data-name="Group 53" transform="translate(-590.663 -524.622)">
    <g id="Group_31" data-name="Group 31" transform="translate(590.663 524.622)">
      <path id="Path_56" data-name="Path 56" d="M-125.244-431.537a34.967,34.967,0,0,1-34.959,34.98,34.969,34.969,0,0,1-34.981-34.959,34.97,34.97,0,0,1,34.959-34.98,34.949,34.949,0,0,1,34.981,34.916v.043" transform="translate(195.183 466.496)" fill="#fff" fill-rule="evenodd"/>
      <path id="Path_57" data-name="Path 57" d="M-145.525-444.3a14.476,14.476,0,0,0-2.485-5.4,32.481,32.481,0,0,0-5.077-5.315,37.4,37.4,0,0,0-5.9-4.213c-2.139-1.232-3.8-2.139-5.034-2.7l-4.559,5.574.324.259a38.241,38.241,0,0,1,6.352,2.7,26.578,26.578,0,0,1,4.818,3.2,29.862,29.862,0,0,1,2.852,2.852,8.562,8.562,0,0,1,1.772,3.046,5.731,5.731,0,0,1,.108,3.2,8.965,8.965,0,0,1-1.966,3.608l-.864,1.059q-4.408-3.413-8.426-6.071a28.539,28.539,0,0,0-7.713-3.716,12.035,12.035,0,0,0-7.5-.043,13.979,13.979,0,0,0-6.115,4.559,14.633,14.633,0,0,0-2.636,4.818,13.54,13.54,0,0,0-.67,5.077,13.4,13.4,0,0,0,1.361,4.818,12.772,12.772,0,0,0,3.09,3.976,17.874,17.874,0,0,0,4.04,2.809,20.406,20.406,0,0,0,3.695,1.21,16.324,16.324,0,0,0,3.284.41c1.21.043,2.161.087,2.874.13l-2.83,3.479,5.315,4.6,18.236-22.276a17.923,17.923,0,0,0,3.392-5.942A10.684,10.684,0,0,0-145.525-444.3Zm-20.634,21.282a26.893,26.893,0,0,1-6.071-.562,12.435,12.435,0,0,1-5.488-2.852,8.754,8.754,0,0,1-3.327-5.315,7.176,7.176,0,0,1,1.923-5.553,6.34,6.34,0,0,1,4.537-2.658,10.915,10.915,0,0,1,5.207.994,35.675,35.675,0,0,1,5.4,3.219c2.1,1.491,3.846,2.7,5.207,3.695Z" transform="translate(203.213 471.8)" fill-rule="evenodd"/>
    </g>
  </g>
</svg>
